<svg xmlns="http://www.w3.org/2000/svg" height="1200" width="1600" version="1.1" xmlns:xlink="http://www.w3.org/1999/xlink" xmlns:svgjs="http://svgjs.com/svgjs"><rect fill="#f3f0e9" width="1600" height="1200"></rect><g><path d="M492.66 271.01H410.84C410.84 271.01 401.39 319.37 429.86 345.02H511.67C483.2 319.37 492.66 271.01 492.66 271.01Z" fill="#bca0ff" opacity="1" stroke-width="4" stroke="#00000000"></path><path d="M377.98 229.17H296.17C296.17 229.17 286.71 277.54 315.18 303.19H397C368.43 277.54 377.98 229.17 377.98 229.17Z" fill="#ff9b30" opacity="1" stroke-width="4" stroke="#00000000"></path></g><g><path d="M887.53 696.74H749.42V767.45H887.53V696.74Z" fill="#595b2c" opacity="1" stroke-width="4" stroke="#00000000"></path><path d="M887.53 766.62H749.42V837.34H887.53V766.62Z" fill="#595b2c" opacity="1" stroke-width="4" stroke="#00000000"></path><path d="M749.42 696.74H887.53V739.25L749.42 702.48V696.74Z" fill="#ffffff00" opacity="0" stroke="#00000000" stroke-width="4"></path><path d="M749.42 766.62H887.53V809.14L749.42 772.36V766.62Z" fill="#ffffff00" opacity="0" stroke="#00000000" stroke-width="4"></path><path d="M802.01 766.62H835.04C835.04 775.69 827.63 783.09 818.56 783.09 809.41 783.18 802.01 775.77 802.01 766.62Z" fill="#23221f" opacity="1" stroke-width="4" stroke="#00000000"></path><path d="M802.01 696.74H835.04C835.04 705.8 827.63 713.21 818.56 713.21 809.41 713.21 802.01 705.89 802.01 696.74Z" fill="#23221f" opacity="1" stroke-width="4" stroke="#00000000"></path><path d="M495.84 570.27H924.06C962.24 570.27 993.19 601.22 993.19 639.5V682.67H426.62V639.5C426.62 601.22 457.57 570.27 495.84 570.27Z" fill="#ffffff" opacity="1" stroke-width="4" stroke="#00000000"></path><path d="M993.19 693.82H887.03V1014.97H993.19V693.82Z" fill="#ffffff" opacity="1" stroke-width="4" stroke="#00000000"></path><path d="M887.03 693.82H988.95C991.03 693.82 992.53 695.9 991.86 697.9L887.28 1014.22C887.2 1014.38 887.03 1014.3 887.03 1014.22V693.82Z" fill="#ffffff00" opacity="0" stroke="#00000000" stroke-width="4"></path><path d="M532.78 693.82H426.62V1014.97H532.78V693.82Z" fill="#ffffff" opacity="1" stroke-width="4" stroke="#00000000"></path><path d="M993.19 678.43H426.62V696.74H993.19V678.43Z" fill="#595b2c" opacity="1" stroke-width="4" stroke="#00000000"></path><path d="M749.42 766.62L886.7 766.46" stroke="#00000000" stroke-width="4" stroke-linecap="round" stroke-linejoin="round" opacity="1" fill="none"></path><path d="M426.62 696.74L993.19 696.57" stroke="#00000000" stroke-width="4" stroke-linecap="round" stroke-linejoin="round" opacity="1" fill="none"></path></g><g><path d="M780.93 678.16L766.17 594.26 673.93 594.25 685.92 662.24C686.69 666.72 689.02 670.77 692.49 673.7 695.97 676.62 700.37 678.19 704.92 678.16H780.93Z" fill="#6432ff" opacity="1" stroke-width="4" stroke="#00000000"></path><path d="M772.57 630.99L766.08 594.26 673.84 594.25 684.51 654.93 772.57 630.99Z" fill="#6432ff00" opacity="0" stroke="#00000000" stroke-width="4"></path><path d="M861.01 625.89C865.65 626.02 870.25 625.12 874.48 623.25 878.72 621.38 882.49 618.57 885.52 615.07 888.53 611.37 890.67 607.04 891.79 602.4 892.91 597.77 892.98 592.93 892.01 588.25L861.25 413.83C857.58 393.07 837.72 376.21 816.99 376.21H552.38C547.75 376.08 543.14 376.98 538.91 378.85 534.67 380.72 530.9 383.5 527.87 387.02 524.87 390.73 522.72 395.05 521.6 399.69 520.48 404.33 520.41 409.15 521.38 413.83L552.15 588.27C555.83 609.02 575.69 625.89 596.4 625.89L861.01 625.89Z" fill="#6432ff" opacity="1" stroke-width="4" stroke="#00000000"></path><path d="M864.99 552.83L840.86 416.06C839.83 410.95 837.1 406.31 833.12 402.94 829.14 399.55 824.14 397.6 818.93 397.4L557.88 397.4C555.57 397.33 553.28 397.79 551.17 398.72 549.07 399.66 547.2 401.05 545.69 402.79 544.19 404.62 543.14 406.77 542.58 409.08 542.03 411.37 541.99 413.75 542.47 416.08L566.63 552.83 864.99 552.83Z" fill="#e9e5f7" opacity="1" stroke-width="4" stroke="#00000000"></path><path d="M725.03 604.73C726.97 604.81 728.92 604.44 730.71 603.65 732.49 602.88 734.09 601.71 735.37 600.24 736.63 598.77 737.57 597.03 738.08 595.14 738.61 593.26 738.69 591.29 738.34 589.37 737.61 584.8 735.3 580.64 731.83 577.58 728.37 574.52 723.95 572.76 719.31 572.59 717.44 572.56 715.57 572.91 713.83 573.62 712.09 574.35 710.53 575.44 709.23 576.81 703.74 582.79 705.1 592.96 712.25 599.51 715.72 602.75 720.26 604.62 725.03 604.73V604.73Z" fill="#0e091d" opacity="1" stroke-width="4" stroke="#00000000"></path><path d="M771.96 626.02H679.75" stroke="#000000" stroke-width="4" stroke-linecap="round" stroke-linejoin="round" opacity="1" fill="none"></path><path d="M778.18 663.09H685.96" stroke="#000000" stroke-width="4" stroke-linecap="round" stroke-linejoin="round" opacity="1" fill="none"></path><path d="M813.01 678.16L812.85 677.41C812.11 673.26 809.93 669.5 806.7 666.81 803.48 664.1 799.41 662.61 795.19 662.61H685.96C686.73 666.97 689 670.92 692.4 673.76 695.79 676.6 700.08 678.16 704.5 678.16H813.01Z" fill="#6432ff" opacity="1" stroke-width="4" stroke="#00000000"></path></g><g><path d="M1167.83 375.89H1241.27C1254.41 375.89 1265.07 386.55 1265.11 399.73V448.24C1265.11 461.42 1254.45 472.08 1241.27 472.08H1198.7L1175.54 487.89C1175.14 488.17 1174.66 488.33 1174.18 488.33 1172.83 488.33 1171.75 487.25 1171.75 485.9V472.08H1167.83C1154.66 472.08 1144 461.42 1144 448.24V399.73C1144 386.55 1154.66 375.89 1167.83 375.89Z" fill="#bca0ff" opacity="1" stroke-width="4" stroke="#00000000"></path><path d="M1198.7 472.08L1195.07 474.56 1171.75 478.95V472.08H1198.7Z" fill="#bca0ff00" opacity="0" stroke="#00000000" stroke-width="4"></path><path d="M1193.95 423.96L1186.88 416.9C1183.97 413.98 1183.97 409.23 1186.88 406.31 1189.8 403.4 1194.55 403.4 1197.46 406.31L1204.53 413.38 1211.6 406.31C1214.51 403.4 1219.27 403.4 1222.18 406.31 1225.1 409.23 1225.1 413.98 1222.18 416.9L1215.11 423.96 1222.14 430.99C1225.06 433.91 1225.06 438.66 1222.14 441.57 1219.23 444.49 1214.47 444.49 1211.56 441.57L1204.53 434.54 1197.5 441.57C1194.59 444.49 1189.84 444.49 1186.92 441.57 1184.01 438.66 1184.01 433.91 1186.92 430.99L1193.95 423.96Z" fill="#ffffff" opacity="1" stroke-width="4" stroke="#00000000"></path></g><g><path d="M646.84 424.15H746.13C763.32 424.15 779.62 438.07 782.57 455.26L789.58 496.08C792.53 513.27 781 527.19 763.81 527.19H664.52C647.33 527.19 631.03 513.27 628.07 496.08L621.07 455.26C618.12 438.07 629.65 424.15 646.84 424.15Z" fill="#ffe061" opacity="1" stroke-width="4" stroke="#00000000"></path><path d="M685.58 497.95L656.2 475.96 678.06 454.09" stroke="#a0a0a0" stroke-width="4" stroke-linecap="round" stroke-linejoin="round" opacity="1" fill="none"></path><path d="M725.07 454.09L754.43 475.96 732.6 497.95" stroke="#a0a0a0" stroke-width="4" stroke-linecap="round" stroke-linejoin="round" opacity="1" fill="none"></path><path d="M708.69 452.69L701.82 498.53" stroke="#a0a0a0" stroke-width="4" stroke-linecap="round" stroke-linejoin="round" opacity="1" fill="none"></path></g><g><path d="M856.6 997.26C858.49 986.49 860.49 974.6 861.37 963.38H806.16C806.67 960.59 808.17 951.61 808.06 950.05 808.06 943.17 802.5 937.61 795.61 937.61L777.4 936.5C776.18 940.06 774.84 943.5 772.73 946.72 763.62 960.27 754.96 966.6 746.52 972.6 740.63 976.82 734.96 980.93 729.97 987.15 727.74 990.04 725.97 992.49 724.52 995.82 724.52 995.82 724.63 996.49 725.52 996.49 739.63 996.6 856.6 997.26 856.6 997.26Z" fill="#595b2c" opacity="1" stroke-width="4" stroke="#00000000"></path><path d="M852.93 1014.37C854.26 1008.59 855.6 1002.59 856.71 996.37V996.15L724.52 995.82 724.08 996.6C719.97 1005.59 720.97 1012.93 721.19 1014.37 721.19 1014.59 721.41 1014.37 721.52 1014.37H852.93Z" fill="#000000" opacity="1" stroke-width="4" stroke="#00000000"></path><path d="M759.74 682.79C768.51 682.79 784.51 673.8 788.06 671.8 785.95 675.24 784.62 682.02 791.62 681.68 808.94 680.46 849.71 655.8 850.71 655.58 850.93 655.69 833.94 612.59 833.6 613.37 828.49 616.14 822.05 614.48 815.28 613.81 794.39 622.7 772.18 637.92 758.18 649.47 749.85 656.58 746.96 661.47 749.07 665.35 747.07 668.46 746.52 671.13 747.41 673.35 748.74 676.57 752.74 677.68 753.63 677.91 753.85 681.24 755.96 682.79 759.74 682.79Z" fill="#e59763" opacity="1" stroke-width="4" stroke="#00000000"></path><path d="M861.37 963.83C862.93 946.83 863.6 929.5 863.15 912.4 863.15 912.73 778.62 906.51 779.29 907.51 781.17 917.73 780.4 928.28 776.84 938.06H795.5C799.5 938.06 803.17 940.06 805.39 943.39 807.17 946.05 808.21 947.99 805.18 963.46L806.54 963.47H861.37Z" fill="#e59763" opacity="1" stroke-width="4" stroke="#00000000"></path><path d="M861.37 963.83V963.61C862.93 946.72 835.49 905.18 835.49 905.18L796.39 905.84 831.05 964.05 861.37 963.83Z" fill="#e5976300" opacity="0" stroke="#00000000" stroke-width="4"></path><path d="M764.96 956.94L778.62 963.72" stroke="#00000000" stroke-width="4" stroke-linecap="round" stroke-linejoin="round" opacity="1" fill="none"></path><path d="M931.24 963.83C932.91 946.83 933.58 929.5 933.13 912.4 933.13 912.62 828.38 906.73 828.83 907.4 830.83 918.62 833.27 932.17 833.27 937.95H855.15C859.15 937.95 862.82 939.95 865.04 943.28 866.82 945.94 867.48 949.16 866.93 952.27L864.71 963.72C867.48 964.6 929.58 965.05 931.24 963.83Z" fill="#e59763" opacity="1" stroke-width="4" stroke="#00000000"></path><path d="M1022.55 455.52C1023.33 438.75 1024.33 413.98 1025 397.54 1025 396.43 1024.55 395.32 1023.77 394.54 1013.22 384.87 1010.78 359.44 1009 343.44 1008.78 341 1006.22 339.44 1003.89 340.33 994.34 344 986.56 344.22 976.12 344.22 965.35 344.22 952.79 338.22 943.8 343.11 926.25 352.55 925.25 360.99 920.58 384.21 920.36 385.54 919.25 386.76 917.91 387.1 908.14 390.1 910.25 394.65 915.58 400.87 916.36 401.98 916.58 402.87 916.25 404.54 911.36 431.53 917.14 446.64 941.24 447.52 945.46 447.52 949.79 446.86 953.13 445.52 953.46 445.41 953.57 445.64 953.57 445.86 953.57 446.08 953.68 454.41 953.68 455.08 956.24 457.85 1018.11 459.3 1022.55 455.52Z" fill="#e59763" opacity="1" stroke-width="4" stroke="#00000000"></path><path d="M926.58 996.37C928.47 985.71 930.13 975.27 931.13 964.16 931.13 963.94 931.02 963.83 930.8 963.83L865.59 963.38C865.37 963.38 865.26 963.16 865.26 963.05 865.71 960.61 867.71 951.5 867.48 950.05 867.48 943.17 861.93 937.61 855.04 937.61H833.38C833.16 937.61 833.05 937.72 833.05 937.95 833.05 956.5 819.94 965.49 806.94 973.94 797.28 980.16 789.62 985.93 785.06 995.71 784.95 995.93 785.06 996.15 785.28 996.15 791.17 996.93 853.93 1005.93 855.71 1006.15 855.71 1006.15 855.71 1006.15 855.82 1006.15 857.71 1005.93 921.69 997.37 926.13 996.6 926.47 996.6 926.58 996.49 926.58 996.37Z" fill="#595b2c" opacity="1" stroke-width="4" stroke="#00000000"></path><path d="M932.91 939.5C933.24 930.73 933.35 921.62 933.13 912.62V912.4L850.27 903.07 849.93 910.84 932.91 939.72V939.5Z" fill="#e5976300" opacity="0" stroke="#00000000" stroke-width="4"></path><path d="M759.18 912.84C759.18 912.17 762.62 846.53 767.07 806.98 771.51 767.44 781.06 735.89 813.28 710.67 874.26 668.02 926.47 667.24 974.34 656.69 974.34 656.69 1068.65 653.25 1068.65 653.47 1091.87 703.12 1099.53 775.66 1019.66 788.76H913.92C915.36 793.1 931.69 844.86 933.13 912.95 913.03 913.73 780.4 913.17 759.18 912.84Z" fill="#ff9b30" opacity="1" stroke-width="4" stroke="#00000000"></path><path d="M810.94 913.06C811.05 913.06 812.05 913.06 813.72 913.06 801.83 913.06 792.39 913.06 792.17 913.06 792.28 912.73 802.06 886.96 795.5 815.65 792.95 785.99 799.5 751.77 821.05 739.67 810.72 759.99 810.28 783.32 809.83 803.2 808.72 855.52 810.94 912.51 810.94 913.06Z" fill="#ff9b3000" opacity="0" stroke="#00000000" stroke-width="4"></path><path d="M919.91 761.66C907.81 751.33 902.25 752.11 900.81 752.89 900.59 753 900.47 753.33 900.59 753.55 908.25 772.21 913.8 788.43 913.92 788.76H969.46C969.46 788.76 930.13 769.88 919.91 761.66Z" fill="#ff9b3000" opacity="0" stroke="#00000000" stroke-width="4"></path><path d="M811.17 912.73C811.17 912.73 808.94 855.75 810.05 802.87 810.61 775.88 811.17 742.11 837.05 718.45 846.93 709.45 859.71 701.23 873.48 694.01" stroke="#000000" stroke-width="4" stroke-linecap="round" stroke-linejoin="round" opacity="1" fill="none"></path><path d="M933.91 409.09C932.58 412.76 927.47 413.98 924.69 413.42" stroke="#00000000" stroke-width="4" stroke-linecap="round" stroke-linejoin="round" opacity="1" fill="#ffffff00"></path><path d="M932.69 392.21C931.09 392.21 929.8 390.92 929.8 389.32 929.8 387.72 931.09 386.43 932.69 386.43 934.28 386.43 935.58 387.72 935.58 389.32 935.58 390.92 934.28 392.21 932.69 392.21Z" fill="#01000500" opacity="1" stroke-width="4" stroke="#ffffff00"></path><path d="M970.01 438.97C970.01 438.97 960.01 442.86 953.13 445.52" stroke="#00000000" stroke-width="4" stroke-linecap="round" stroke-linejoin="round" opacity="1" fill="none"></path><path d="M913.92 788.54C910.14 776.77 900.59 753.55 900.59 753.55" stroke="#000000" stroke-width="4" stroke-linecap="round" stroke-linejoin="round" opacity="1" fill="none"></path><path d="M945.46 682.68C979.79 683.24 1004.89 675.46 1023.66 659.24 1023.77 659.24 1023.77 659.13 1023.89 659.13 1026.22 659.13 1066.87 659.02 1070.87 659.02 1071.09 659.02 1071.21 658.91 1071.21 658.69V638.92C1071.21 638.81 1071.32 638.69 1071.32 638.69 1091.2 626.59 1083.76 603.04 1078.76 587.71 1076.65 581.27 1075.09 576.27 1075.76 573.49 1091.98 504.51 1069.98 473.29 1022.77 466.63 1022.66 466.63 1022.55 466.52 1022.55 466.3 1022.55 464.74 1022.55 456.97 1022.55 455.3 1022.55 455.08 1022.44 454.97 1022.22 454.97H954.02C953.79 454.97 953.68 455.08 953.68 455.3V466.07C953.68 466.19 953.57 466.3 953.46 466.41 946.13 468.52 939.13 471.52 932.58 475.29 915.14 485.29 903.7 500.73 891.92 530.5 877.37 567.38 871.37 581.6 870.59 583.15 870.59 583.26 870.48 583.26 870.48 583.26 868.04 584.6 837.05 601.82 815.5 613.48 815.39 613.59 815.28 613.7 815.39 613.92L841.16 663.35C841.27 663.47 841.38 663.58 841.49 663.58L878.15 661.35C878.37 661.35 878.48 661.47 878.48 661.58 878.7 663.47 879.26 674.02 879.59 675.57 879.59 675.68 879.7 675.8 879.81 675.8 882.26 676.46 912.8 682.68 945.46 682.68Z" fill="#ffe061" opacity="1" stroke-width="4" stroke="#00000000"></path><path d="M1071.21 659.02V639.03C1071.21 638.92 1071.32 638.81 1071.32 638.81 1091.09 627.14 1083.65 603.15 1078.76 587.82 1076.98 582.6 1075.76 578.6 1075.65 575.71 1075.65 575.38 1075.2 575.27 1075.09 575.6 1055.43 630.7 1023.89 659.24 1023.89 659.24L1071.21 659.02Z" fill="#ffe06100" opacity="0" stroke="#00000000" stroke-width="4"></path><path d="M798.5 710.79C809.72 710.79 821.83 694.01 825.83 687.9 822.16 702.79 829.38 719.23 839.6 696.12 851.93 669.46 859.6 673.91 886.26 677.46L890.92 678.02 889.26 612.37C873.26 612.37 849.16 616.26 837.82 618.92 815.39 624.92 782.17 636.36 783.84 646.91 785.06 651.02 794.27 653.16 793.95 653.25 787.06 660.69 778.62 675.13 775.4 680.57 769.62 689.35 769.4 698.34 778.4 699.46 778.29 703.68 779.06 706.68 780.73 708.45 783.28 711.79 790.28 709.79 792.06 708.56 793.95 710.01 796.17 710.79 798.5 710.79Z" fill="#e59763" opacity="1" stroke-width="4" stroke="#00000000"></path><path d="M778.51 699.34C792.73 674.57 812.28 654.36 812.28 654.36" stroke="#000000" stroke-width="4" stroke-linecap="round" stroke-linejoin="round" opacity="1" fill="none"></path><path d="M792.06 708.34C807.28 684.79 824.72 663.35 824.72 663.35" stroke="#000000" stroke-width="4" stroke-linecap="round" stroke-linejoin="round" opacity="1" fill="none"></path><path d="M825.83 687.9L835.05 671.69" stroke="#000000" stroke-width="4" stroke-linecap="round" stroke-linejoin="round" opacity="1" fill="none"></path><path d="M1022.22 442.3C1022.66 442.3 1023.11 442.64 1023.11 442.64L1025 395.98C1026 380.65 1026.33 351.44 1008.78 338.55 1008.67 338.44 1008.44 338.44 1008.33 338.55 999.67 346.55 988.12 344.33 976.23 344.33 965.46 344.33 957.24 337.67 948.24 342.55 939.24 347.55 931.02 348.22 927.36 358.66 927.36 358.77 927.36 358.88 927.36 358.99 928.47 360.33 936.91 370.77 954.79 371.1 955.01 371.1 955.13 371.21 955.13 371.43 954.35 389.43 962.68 396.87 964.12 398.09 964.23 398.2 964.46 398.2 964.57 398.09 968.39 396.16 984.12 378.77 999 394.76 1012.33 408.98 992.45 429.2 990.01 431.64 989.89 431.75 989.89 431.97 990.01 432.08 1002 441.53 1018.89 442.41 1022.22 442.3Z" fill="#010005" opacity="1" stroke-width="4" stroke="#00000000"></path><path d="M984.45 411.31L976.23 417.87" stroke="#00000000" stroke-width="4" stroke-linecap="round" stroke-linejoin="round" opacity="1" fill="#ffffff00"></path><path d="M820.39 963.94L834.05 970.71" stroke="#00000000" stroke-width="4" stroke-linecap="round" stroke-linejoin="round" opacity="1" fill="none"></path><path d="M1075.54 573.27C1069.87 594.6 1047.43 637.36 1023.77 658.8" stroke="#000000" stroke-width="4" stroke-linecap="round" stroke-linejoin="round" opacity="1" fill="none"></path><path d="M1071.09 638.58H1042.99" stroke="#000000" stroke-width="4" stroke-linecap="round" stroke-linejoin="round" opacity="1" fill="none"></path><path d="M1055.32 658.8V638.58" stroke="#00000000" stroke-width="4" stroke-linecap="round" stroke-linejoin="round" opacity="1" fill="none"></path><path d="M889.26 612.37C915.03 611.37 967.12 609.04 967.12 609.04" stroke="#000000" stroke-width="4" stroke-linecap="round" stroke-linejoin="round" opacity="1" fill="none"></path><path d="M967.12 609.04L993 550.61" stroke="#000000" stroke-width="4" stroke-linecap="round" stroke-linejoin="round" opacity="1" fill="none"></path><path d="M922.14 610.7L918.8 580.6" stroke="#000000" stroke-width="4" stroke-linecap="round" stroke-linejoin="round" opacity="1" fill="none"></path><path d="M1022.55 466.63C1022.55 466.63 1028.44 467.19 1034.77 469.07" stroke="#000000" stroke-width="4" stroke-linecap="round" stroke-linejoin="round" opacity="1" fill="none"></path><path d="M1025.33 395.65C1025.33 394.76 1025.22 392.87 1025.22 392.21 1025.22 392.09 1025.11 391.98 1025 391.98 1022.77 391.1 1006 383.1 1003.89 382.1 1003.78 381.99 1003.67 381.88 1003.67 381.76 1004.89 375.1 1009.67 358.66 1021.11 358.77 1021.55 358.66 1021.77 358.33 1021.66 357.88L1020.33 353.99C1016.22 345 1014.44 342.33 1008.44 338.11 999.56 332 988.12 328.67 976.12 328.67 951.24 328.67 929.69 341.33 924.47 366.1 924.47 366.21 924.47 366.44 924.58 366.44 927.91 368.21 972.23 392.09 972.23 392.09 972.57 392.21 972.9 392.32 973.12 392.09 976.56 390.43 980.56 389.1 984.45 389.21 993.34 388.87 999.56 392.54 1003.11 402.98L1023.55 412.98C1023.89 413.2 1024.33 412.98 1024.33 412.53 1024.66 409.76 1025.22 399.76 1025.33 395.65Z" fill="#595b2c" opacity="1" stroke-width="4" stroke="#00000000"></path><path d="M970.01 438.97C964.57 441.53 959.46 444.08 953.79 445.86 953.68 445.86 953.57 445.97 953.57 446.19 953.57 447.19 953.68 451.41 953.68 455.19 953.68 457.3 953.68 459.19 953.68 460.3 953.68 460.63 954.02 460.74 954.24 460.52L970.46 439.64C970.68 439.19 970.34 438.86 970.01 438.97Z" fill="#e5976300" opacity="0" stroke="#00000000" stroke-width="4"></path><path d="M967.12 609.04L992.78 551.05C992.89 550.83 992.67 550.61 992.45 550.61 990.34 550.72 981.23 552.83 967.9 575.04 961.9 585.04 955.01 593.48 946.68 594.04 937.8 594.6 931.35 589.15 926.36 584.15 923.47 581.38 920.14 580.71 919.02 580.6 918.8 580.6 918.69 580.71 918.69 580.93L922.14 611.26 967.12 609.04Z" fill="#ffe06100" opacity="0" stroke="#00000000" stroke-width="4"></path><path d="M970.9 391.32L906.92 356.99" stroke="#000000" stroke-width="4" stroke-linecap="round" stroke-linejoin="round" opacity="1" fill="none"></path><path d="M922.8 1014.37C924.02 1008.82 925.36 1002.93 926.47 997.04 926.47 996.82 926.36 996.71 926.13 996.71L785.17 996.26C785.06 996.26 784.95 996.37 784.84 996.49 780.84 1005.48 781.73 1013.04 781.84 1014.48 781.84 1014.59 781.95 1014.48 782.17 1014.48 788.84 1014.48 915.91 1014.48 922.36 1014.48 922.69 1014.37 922.8 1014.48 922.8 1014.37Z" fill="#000000" opacity="1" stroke-width="4" stroke="#00000000"></path><path d="M788.95 637.92C785.62 640.47 783.51 643.36 783.62 646.25 783.95 652.25 793.84 653.25 793.84 653.25 793.84 653.25 783.4 665.69 777.17 677.35" stroke="#000000" stroke-width="4" stroke-linecap="round" stroke-linejoin="round" opacity="1" fill="none"></path><path d="M749.07 665.35L768.18 656.69" stroke="#000000" stroke-width="4" stroke-linecap="round" stroke-linejoin="round" opacity="1" fill="none"></path><path d="M754.07 677.35L773.06 668.8" stroke="#000000" stroke-width="4" stroke-linecap="round" stroke-linejoin="round" opacity="1" fill="none"></path></g><g><path d="M1066.17 814.2L1114.37 1013.09" stroke="#000000" stroke-width="4" stroke-linecap="round" stroke-linejoin="round" opacity="1" fill="none"></path><path d="M972.51 814.2L924.32 1013.09" stroke="#000000" stroke-width="4" stroke-linecap="round" stroke-linejoin="round" opacity="1" fill="none"></path><path d="M954.14 890.61H1084.44" stroke="#00000000" stroke-width="4" stroke-linecap="round" stroke-linejoin="round" opacity="1" fill="none"></path><path d="M946.37 788.68H1092.21C1103.03 788.68 1111.74 795.24 1111.74 803.38 1111.74 811.51 1103.03 818.07 1092.21 818.07H946.37C935.55 818.07 926.84 811.51 926.84 803.38 926.84 795.32 935.66 788.68 946.37 788.68Z" fill="#595b2c" opacity="1" stroke-width="4" stroke="#00000000"></path><path d="M927.26 806.22C929.04 812.94 936.92 818.07 946.37 818.07H1092.21C1103.03 818.07 1111.74 811.51 1111.74 803.38 1111.74 800.06 1110.27 797.05 1107.86 794.6 1082.34 800.93 1051.89 805.59 1018.92 807.8 985.43 810.01 954.03 809.3 927.26 806.22Z" fill="#595b2c00" opacity="0" stroke="#00000000" stroke-width="4"></path></g><g><path d="M584.22 678.22H532.6C532.6 678.22 532.5 678.22 532.5 678.12L523.08 600.04C523.08 600.04 523.08 599.94 523.18 599.94L555.96 611.16 593.65 599.94C593.65 599.94 593.75 599.94 593.75 600.04L584.22 678.22C584.32 678.22 584.32 678.22 584.22 678.22Z" fill="#ffe061" opacity="1" stroke-width="4" stroke="#00000000"></path><path d="M557.96 617.98C533.3 617.98 523.68 601.14 523.08 600.14V600.04H593.65C593.65 600.04 593.75 600.04 593.65 600.14 593.04 601.14 582.52 617.98 557.96 617.98Z" fill="#524a2a" opacity="1" stroke-width="4" stroke="#00000000"></path></g><g><path d="M336.43 859.57C331.85 842.51 306.89 837.41 296.62 870.35 287.69 899.09 275.06 903.3 269.29 931.73 263.83 958.91 279.56 998.2 319.89 995.4 362.36 992.44 336.43 859.57 336.43 859.57Z" stroke="#00000000" stroke-width="4" stroke-linecap="round" stroke-linejoin="round" opacity="1" fill="none"></path><path d="M353.49 786.82L408.03 889.15 312.87 939.88 258.32 837.55 353.49 786.82Z" fill="#ff9b30" opacity="1" stroke-width="4" stroke="#00000000"></path><path d="M380.08 800.41H379.79C363.39 800.41 350.1 813.71 350.1 830.1V857.8H409.77V830.1C409.77 813.71 396.48 800.41 380.08 800.41Z" stroke="#bebebe" stroke-width="4" stroke-linecap="round" stroke-linejoin="round" opacity="1" fill="none"></path><path d="M380.01 828.26H379.34C336.8 828.26 302.38 862.75 302.38 905.22V996.88C302.38 1006.7 310.36 1014.68 320.18 1014.68H439.17C448.99 1014.68 456.97 1006.7 456.97 996.88V905.3C457.04 862.75 422.55 828.26 380.01 828.26 380.01 828.26 380.08 828.26 380.01 828.26Z" fill="#6432ff" opacity="1" stroke-width="4" stroke="#00000000"></path><path d="M410.51 922.8H348.99C339.02 922.8 330.89 930.93 330.89 940.9V979.67C330.89 989.64 339.02 997.77 348.99 997.77H410.51C420.48 997.77 428.61 989.64 428.61 979.67V940.9C428.61 930.93 420.48 922.8 410.51 922.8Z" fill="#6432ff00" opacity="0" stroke="#00000000" stroke-width="4"></path><path d="M410.27 926.91H348.99C340.5 926.41 338.51 931.83 330.85 942.91V971.55C330.89 981.52 339.02 989.64 348.99 989.64H410.51C420.48 989.64 428.61 981.52 428.61 971.55V942.57C422.71 928.48 419.87 927.4 410.27 926.41Z" fill="#d66f00" opacity="1" stroke-width="4" stroke="#00000000"></path><path d="M410.51 914.68H348.99C339.02 914.68 330.89 922.8 330.89 932.77V942.52H428.61V932.77C428.61 922.8 420.48 914.68 410.51 914.68Z" fill="#ff9b30" stroke="#00000000" stroke-width="4" opacity="1"></path><path d="M428.61 942.52H330.82" stroke="#00000000" stroke-width="4" stroke-linecap="round" stroke-linejoin="round" opacity="1" fill="none"></path><path d="M379.71 891.34C371.55 891.34 364.94 884.72 364.94 876.57 364.94 868.41 371.55 861.79 379.71 861.79 387.87 861.79 394.48 868.41 394.48 876.57 394.48 884.72 387.87 891.34 379.71 891.34Z" fill="#ff9b30" opacity="1" stroke-width="4" stroke="#00000000"></path></g><g><path d="M1341.73 1015.88L1341.75 1014.09C1341.75 983.28 1341.75 954.18 1303.82 917.48 1302.55 916.25 1301.33 915.09 1300.15 913.98 1299.2 913.07 1298.28 912.2 1297.39 911.35 1279.4 894.28 1271.96 887.21 1259.09 844.17L1258.86 843.33 1258.72 842.87C1247.31 804.92 1242.59 789.21 1218.09 784.55 1216.47 784.22 1214.86 784.17 1213.64 784.17 1204.44 784.17 1195.81 789.26 1191.49 792.3 1188.75 794.2 1185.49 795.2 1182.08 795.2 1180.45 795.2 1178.76 794.97 1177.18 794.51L1154.5 787.85C1153.8 787.64 1153.11 787.54 1152.28 787.54 1148.75 787.54 1145.59 789.94 1144.59 793.38 1144.45 793.89 1144.37 794.33 1144.29 794.92 1143.68 802.15 1144.43 812.46 1151.49 820.52 1156.06 825.7 1161.24 829.06 1165.81 832.03L1165.9 832.09C1171.7 835.88 1176.23 838.84 1176.23 843.49V997.01L1173.19 996.99C1165.91 996.99 1159.99 1002.91 1159.99 1010.19V1015.88H1341.73V1015.88Z" fill="#6432ff" opacity="1" stroke-width="4" stroke="#00000000"></path><path d="M1267.16 868.33L1267.05 868.07C1264.98 862.71 1262.9 856.52 1260.31 848L1260.29 847.93 1176.18 847.91 1176.16 868.33H1267.16V868.33Z" fill="#ff9b30" opacity="1" stroke-width="4" stroke="#00000000"></path><path d="M1228.81 892.31C1239.55 892.31 1248.29 883.57 1248.29 872.83V811.24C1241.39 794.06 1232.56 787.1 1218.01 784.56 1216.76 784.34 1215.35 784.17 1213.56 784.17 1212.01 784.17 1210.87 784.21 1209.63 784.41L1209.27 784.48 1209.25 872.83C1209.33 883.57 1218.1 892.31 1228.81 892.31Z" fill="#370dbc" opacity="1" stroke-width="4" stroke="#00000000"></path><path d="M1176.64 905.39C1181.54 905.39 1185.91 902.48 1187.82 897.88 1189.05 894.89 1189.05 891.6 1187.82 888.61 1186.6 885.62 1184.22 883.32 1181.23 882.02 1179.78 881.41 1178.17 881.1 1176.64 881.1 1171.73 881.1 1167.37 884.01 1165.45 888.61 1164.23 891.6 1164.23 894.89 1165.45 897.88 1166.68 900.87 1169.05 903.17 1172.04 904.47 1173.5 905.08 1175.03 905.39 1176.64 905.39Z" fill="#595b2c" opacity="1" stroke-width="4" stroke="#00000000"></path><path d="M1192.88 808.79C1190.89 808.79 1189.28 807.17 1189.28 805.18 1189.28 803.2 1190.89 801.58 1192.88 801.58 1194.87 801.58 1196.48 803.2 1196.48 805.18 1196.48 807.17 1194.87 808.79 1192.88 808.79Z" fill="#5a3a3500" opacity="1" stroke-width="4" stroke="#ffffff00"></path><path d="M1149.65 800.33C1155.45 800.33 1160.17 795.58 1160.17 789.74V789.51L1154.48 787.8C1154.03 787.65 1153.49 787.57 1152.96 787.5L1152.33 787.49C1148.04 787.49 1144.57 790.67 1144.27 794.87 1144.19 796.07 1144.11 797.32 1144.11 798.7V798.82L1144.2 798.87C1145.75 799.8 1147.73 800.33 1149.65 800.33Z" fill="#370dbc" opacity="1" stroke-width="4" stroke="#00000000"></path><path d="M1210.34 1015.88L1210.37 1010.19C1210.37 1003.1 1216.13 997.34 1223.21 997.34L1226.59 997.34 1226.61 997.16C1226.61 997.16 1226.6 997.11 1226.6 997.03 1226.26 991.77 1225.32 964.5 1239.7 944.55L1240.01 944.17 1239.53 944.28 1239.44 944.32C1235.98 945.78 1205.57 959.73 1205.5 997.16 1205.36 997.18 1201.69 998.02 1198.17 1001.02 1193.98 1004.58 1191.86 1009.52 1191.86 1015.7V1015.88H1210.34V1015.88Z" fill="#6432ff00" opacity="0" stroke="#00000000" stroke-width="4"></path><path d="M1269.72 924.54C1221.07 936.11 1226.43 997.16 1226.43 997.16H1223.21C1216.01 997.16 1210.19 1002.99 1210.19 1010.19V1014.94" stroke="#000000" stroke-width="4" stroke-linecap="round" stroke-linejoin="round" opacity="1" fill="none"></path></g></svg>
